<svg xmlns="http://www.w3.org/2000/svg" viewBox="0 0 64 64">
  <!-- Background circle -->
  <defs>
    <linearGradient id="bg" x1="0%" y1="0%" x2="100%" y2="100%">
      <stop offset="0%" style="stop-color:#0ea5e9"/>
      <stop offset="100%" style="stop-color:#0f3460"/>
    </linearGradient>
  </defs>
  <rect width="64" height="64" rx="12" fill="url(#bg)"/>
  <!-- Wave 1 (back) -->
  <path d="M4 38 Q12 28 20 34 Q28 40 36 30 Q44 20 52 28 Q58 34 60 32 L60 52 Q44 58 32 54 Q16 50 4 54 Z" fill="rgba(255,255,255,0.25)"/>
  <!-- Wave 2 (front) -->
  <path d="M4 44 Q10 36 18 41 Q26 46 34 38 Q42 30 50 36 Q56 40 60 38 L60 58 Q44 64 32 60 Q16 56 4 58 Z" fill="rgba(255,255,255,0.55)"/>
  <!-- Wave top crest -->
  <path d="M4 48 Q12 42 20 46 Q28 50 36 44 Q44 38 52 43 Q57 46 60 44 L60 64 L4 64 Z" fill="white"/>
</svg>
